<svg width="45" height="46" viewBox="0 0 45 46" fill="none" xmlns="http://www.w3.org/2000/svg">
<path d="M34.4494 23.9648C34.5149 23.4791 34.55 22.9899 34.5547 22.5C34.55 22.0101 34.5149 21.5209 34.4494 21.0352L37.7046 18.5523C37.8516 18.4429 37.952 18.2845 37.9867 18.1075C38.0213 17.9305 37.9878 17.7472 37.8925 17.5928L34.8103 12.3853C34.721 12.2291 34.5762 12.1101 34.4031 12.0507C34.23 11.9914 34.0406 11.9957 33.8705 12.063L30.029 13.5718C29.2297 12.9774 28.3555 12.4851 27.4279 12.107L26.849 8.12992C26.8235 7.95393 26.7332 7.793 26.5949 7.67711C26.4565 7.56122 26.2797 7.49829 26.0973 7.50004H19.9178C19.7353 7.49829 19.5585 7.56122 19.4202 7.67711C19.2819 7.793 19.1915 7.95393 19.166 8.12992L18.5871 12.107C17.6583 12.4828 16.7839 12.9752 15.986 13.5718L12.1295 12.063C11.9594 11.9957 11.77 11.9914 11.5969 12.0507C11.4238 12.1101 11.279 12.2291 11.1897 12.3853L8.1075 17.5928C8.01218 17.7472 7.97865 17.9305 8.01333 18.1075C8.048 18.2845 8.14844 18.4429 8.29544 18.5523L11.5431 21.0352C11.4778 21.5209 11.4427 22.0101 11.4378 22.5C11.4424 22.9899 11.4776 23.4791 11.5431 23.9648L8.29544 26.4477C8.14844 26.5571 8.048 26.7155 8.01333 26.8925C7.97865 27.0695 8.01218 27.2528 8.1075 27.4072L11.1897 32.6147C11.279 32.7709 11.4238 32.8899 11.5969 32.9493C11.77 33.0086 11.9594 33.0043 12.1295 32.937L15.971 31.4282C16.7703 32.0226 17.6445 32.5149 18.5721 32.893L19.151 36.8701C19.1765 37.0461 19.2668 37.207 19.4051 37.3229C19.5435 37.4388 19.7203 37.5017 19.9027 37.5H26.0672C26.2496 37.5017 26.4265 37.4388 26.5648 37.3229C26.7031 37.207 26.7934 37.0461 26.819 36.8701L27.3978 32.893C28.3267 32.5172 29.2011 32.0248 29.9989 31.4282L33.8405 32.937C34.0105 33.0043 34.1999 33.0086 34.373 32.9493C34.5461 32.8899 34.6909 32.7709 34.7802 32.6147L37.8624 27.4072C37.9577 27.2528 37.9913 27.0695 37.9566 26.8925C37.9219 26.7155 37.8215 26.5571 37.6745 26.4477L34.4494 23.9648ZM23 27.7588C21.9321 27.7602 20.8878 27.453 19.9992 26.8761C19.1105 26.2991 18.4175 25.4783 18.0078 24.5175C17.5981 23.5567 17.4902 22.4991 17.6976 21.4786C17.905 20.458 18.4185 19.5203 19.1731 18.7841C19.9277 18.0479 20.8894 17.5463 21.9367 17.3428C22.9839 17.1393 24.0696 17.243 25.0563 17.6408C26.0431 18.0386 26.8865 18.7127 27.48 19.5776C28.0734 20.4426 28.3902 21.4596 28.3902 22.5C28.3912 23.1902 28.2525 23.8739 27.982 24.5119C27.7116 25.1499 27.3147 25.7297 26.8141 26.2181C26.3135 26.7065 25.7189 27.094 25.0645 27.3583C24.41 27.6227 23.7085 27.7588 23 27.7588V27.7588Z" stroke="#3F3F3F" stroke-width="2" stroke-linecap="round" stroke-linejoin="round"/>
</svg>
