<svg width="25" height="26" viewBox="0 0 25 26" fill="none" xmlns="http://www.w3.org/2000/svg">
<path d="M7.31877 6.88885C7.31877 7.84001 6.54771 8.61107 5.59655 8.61107C4.64539 8.61107 3.87433 7.84001 3.87433 6.88885C3.87433 5.93769 4.64539 5.16663 5.59655 5.16663C6.54771 5.16663 7.31877 5.93769 7.31877 6.88885Z" stroke="black"/>
<circle cx="12.2632" cy="6.33332" r="2.27778" stroke="black"/>
<path d="M20.6521 6.88885C20.6521 7.84001 19.881 8.61107 18.9299 8.61107C17.9787 8.61107 17.2077 7.84001 17.2077 6.88885C17.2077 5.93769 17.9787 5.16663 18.9299 5.16663C19.881 5.16663 20.6521 5.93769 20.6521 6.88885Z" stroke="black"/>
<path d="M14.4854 10.7778H10.3743C9.26976 10.7778 8.37433 11.6732 8.37433 12.7778V18.3487C8.37433 19.3811 9.82936 22.4784 13.6124 21.7901" stroke="black"/>
<path d="M10.5966 10.7778H14.7077C15.8122 10.7778 16.7077 11.6732 16.7077 12.7778V18.3487C16.7077 19.3811 15.2526 22.4784 11.4696 21.7901" stroke="black"/>
<path fill-rule="evenodd" clip-rule="evenodd" d="M6.2084 10.5555H5.09656C3.71584 10.5555 2.59656 11.6748 2.59656 13.0555V17.1667C2.59656 17.6872 2.78225 18.4405 3.32005 19.1005C3.87004 19.7755 4.76157 20.3201 6.10685 20.4424L6.19738 19.4465C5.09821 19.3466 4.46196 18.9189 4.09529 18.4689C3.71642 18.0039 3.59656 17.4794 3.59656 17.1667V13.0555C3.59656 12.2271 4.26813 11.5555 5.09656 11.5555H5.97103C5.9433 11.3502 5.95867 11.1468 6.01756 10.9521C6.06304 10.8018 6.13035 10.6699 6.2084 10.5555Z" fill="black"/>
<path fill-rule="evenodd" clip-rule="evenodd" d="M18.3287 10.5555H19.4802C20.8609 10.5555 21.9802 11.6748 21.9802 13.0555V17.1667C21.9802 17.6872 21.7945 18.4405 21.2567 19.1005C20.7067 19.7755 19.8152 20.3201 18.4699 20.4424L18.3793 19.4465C19.4785 19.3466 20.1148 18.9189 20.4814 18.4689C20.8603 18.0039 20.9802 17.4794 20.9802 17.1667V13.0555C20.9802 12.2271 20.3086 11.5555 19.4802 11.5555H18.6308C18.6605 11.3723 18.6488 11.1935 18.5976 11.0245C18.5406 10.8359 18.4409 10.6804 18.3287 10.5555Z" fill="black"/>
</svg>
