<svg width="45" height="45" viewBox="0 0 45 45" fill="none" xmlns="http://www.w3.org/2000/svg">
<circle cx="10.0739" cy="11.5" r="3.5" stroke="black"/>
<circle cx="22.0739" cy="10.5" r="4.5" stroke="black"/>
<circle cx="34.0739" cy="11.5" r="3.5" stroke="black"/>
<path d="M26.0739 18.5H17.0739C15.9693 18.5 15.0739 19.3954 15.0739 20.5V32.1277C15.0739 33.9861 17.6929 39.5611 24.5024 38.3222" stroke="black"/>
<path d="M19.0739 18.5H28.0739C29.1784 18.5 30.0739 19.3954 30.0739 20.5V32.1277C30.0739 33.9861 27.4548 39.5611 20.6453 38.3222" stroke="black"/>
<path fill-rule="evenodd" clip-rule="evenodd" d="M11.6301 18.5H7.57385C6.19314 18.5 5.07385 19.6193 5.07385 21V30C5.07385 30.8539 5.38177 32.1183 6.28624 33.2283C7.20289 34.3533 8.70553 35.2868 11.0286 35.4979L11.1191 34.5021C9.04217 34.3132 7.79482 33.4967 7.06147 32.5967C6.31593 31.6817 6.07385 30.6461 6.07385 30V21C6.07385 20.1716 6.74543 19.5 7.57385 19.5H11.3244C11.3284 19.3241 11.356 19.1528 11.406 18.9875C11.4603 18.8078 11.5381 18.6455 11.6301 18.5Z" fill="black"/>
<path fill-rule="evenodd" clip-rule="evenodd" d="M32.8039 18.5H36.6643C38.045 18.5 39.1643 19.6193 39.1643 21V30C39.1643 30.8539 38.8564 32.1183 37.9519 33.2283C37.0353 34.3533 35.5326 35.2868 33.2096 35.4979L33.119 34.5021C35.196 34.3132 36.4433 33.4967 37.1767 32.5967C37.9222 31.6817 38.1643 30.6461 38.1643 30V21C38.1643 20.1716 37.4927 19.5 36.6643 19.5H33.1637C33.1597 19.348 33.1356 19.201 33.0929 19.0599C33.0287 18.8475 32.9263 18.6613 32.8039 18.5Z" fill="black"/>
</svg>
